<?xml version="1.0" encoding="utf-8"?>
<!-- Generator: Adobe Illustrator 15.0.0, SVG Export Plug-In . SVG Version: 6.00 Build 0)  -->
<!DOCTYPE svg PUBLIC "-//W3C//DTD SVG 1.1//EN" "http://www.w3.org/Graphics/SVG/1.1/DTD/svg11.dtd">
<svg version="1.1" id="Ebene_1" xmlns="http://www.w3.org/2000/svg" xmlns:xlink="http://www.w3.org/1999/xlink" x="0px" y="0px"
	 width="768px" height="768px" viewBox="0 0 768 768" enable-background="new 0 0 768 768" xml:space="preserve">
<title></title>
<path fill="#C0BCB1" d="M215.999,144c0,39.764-32.236,72-72,72s-72-32.236-72-72s32.236-72,72-72S215.999,104.236,215.999,144z"/>
<path fill="#C0BCB1" d="M144,215.999c-66.275,0-120,21.49-120,48v48h240v-48C264,237.489,210.274,215.999,144,215.999z"/>
<path fill="#C0BCB1" d="M696,144c0,39.764-32.236,72-72,72s-72-32.236-72-72s32.236-72,72-72S696,104.236,696,144z"/>
<path fill="#C0BCB1" d="M623.999,215.999c-66.274,0-120,21.49-120,48v48h240v-48C743.999,237.489,690.273,215.999,623.999,215.999z"
	/>
<path fill="#C0BCB1" d="M456,527.999c0,39.764-32.236,72-72,72c-39.764,0-72-32.236-72-72s32.236-72,72-72
	C423.764,455.999,456,488.235,456,527.999z"/>
<path fill="#C0BCB1" d="M384,600c-66.274,0-120,21.49-120,48v48h240v-48C504,621.49,450.274,600,384,600z"/>
<path fill="#C0BCB1" d="M479.999,167.999h-192c-13.254,0-24.001-10.746-24.001-23.998S274.744,120,287.999,120h192
	C493.253,120,504,130.746,504,144.001S493.255,167.999,479.999,167.999z"/>
<path fill="#C0BCB1" d="M527.979,552.002c-4.575,0-9.198-1.305-13.29-4.034c-11.029-7.351-14.011-22.252-6.657-33.28l96-144
	c7.351-11.03,22.255-14.008,33.283-6.657s14.01,22.255,6.656,33.282l-96,144c-4.628,6.938-12.236,10.692-19.994,10.692
	L527.979,552.002z"/>
<path fill="#C0BCB1" d="M240.022,552.002c-7.755,0-15.366-3.753-19.991-10.692l-96-144c-7.351-11.027-4.374-25.929,6.657-33.28
	c11.028-7.354,25.929-4.374,33.28,6.656l96,144c7.352,11.029,4.374,25.93-6.657,33.28c-4.091,2.728-8.716,4.034-13.29,4.034
	L240.022,552.002z"/>
</svg>
